Coordinates
version=1
nRows=20
nColumns=29
inDegrees=yes

Units are S.I. units (second, meters, Newtons, ...)
Angles are in degrees.

endheader
time	pelvis_rz	pelvis_rx	pelvis_ry	pelvis_tx	pelvis_ty	pelvis_tz	hip_flexion_r	hip_adduction_r	hip_rotation_r	knee_angle_r	tp_r3	tp_tx	tp_ty	tp_tz	ankle_angle_r	subtalar_angle_r	mtp_angle_r	hip_flexion_l	hip_adduction_l	hip_rotation_l	knee_angle_l	ltp_r3	ltp_tx	ltp_ty	ltp_tz	ankle_angle_l	subtalar_angle_l	mtp_angle_l
      0.06600000	      3.48062303	     11.86201089	     79.76848527	     -0.07524716	     -0.08553382	      2.81211406	    -18.35798979	     -5.91191035	     14.53131644	     -4.75935324	      5.03860485	      0.04906590	     -0.02250559	      0.00240000	     10.07223862	     15.41668452	      0.00000000	    -22.60936687	     -4.87833808	    -14.17764945	     -4.35111601	      4.65572152	      0.04911435	     -0.02252146	     -0.00240000	     13.20098323	     -8.92267231	      0.00000000
      0.10303704	      3.39384001	     11.89646420	     79.64855280	     -0.07520664	     -0.08578132	      2.81198496	    -18.36579466	     -6.10237663	     14.44100314	     -4.96267078	      5.22565923	      0.04904159	     -0.02249767	      0.00240000	     11.01746660	     15.57059780	      0.00000000	    -22.70756640	     -4.64360628	    -13.50679117	     -4.27237140	      4.58074569	      0.04912364	     -0.02252452	     -0.00240000	     17.05190102	     -9.27070451	      0.00000000
      0.14007407	      3.31313235	     11.63929769	     79.84371000	     -0.07533199	     -0.08609011	      2.81167317	    -18.15252226	     -6.11031708	     13.63099648	     -4.92513154	      5.19129882	      0.04904609	     -0.02249913	      0.00240000	     11.06082814	     16.20622828	      0.00000000	    -22.36486906	     -4.69345811	    -13.07581194	     -4.36285737	      4.66690574	      0.04911297	     -0.02252100	     -0.00240000	     17.76189243	     -9.23608508	      0.00000000
      0.17711111	      3.36678338	     11.62871180	     79.66301406	     -0.07525090	     -0.08622636	      2.81160440	    -18.10285752	     -6.11750474	     13.78609343	     -5.02153602	      5.27936232	      0.04903453	     -0.02249538	      0.00240000	     11.36407510	     16.13064548	      0.00000000	    -22.49137735	     -4.63154278	    -12.70498987	     -4.15877423	      4.47191517	      0.04913701	     -0.02252893	     -0.00240000	     19.21528111	     -9.15111219	      0.00000000
      0.21414815	      3.36885632	     11.39269000	     79.88157532	     -0.07546094	     -0.08652951	      2.81137256	    -17.92454895	     -5.99239276	     14.46398398	     -4.99211018	      5.25258691	      0.04903806	     -0.02249653	      0.00240000	     11.26915357	     15.38731150	      0.00000000	    -22.18155372	     -4.78484892	    -11.45503781	     -4.28535516	      4.59315088	      0.04912211	     -0.02252401	     -0.00240000	     20.47560267	     -8.89540767	      0.00000000
      0.25118519	      3.30713298	     11.38864016	     79.69564420	     -0.07525162	     -0.08655282	      2.81133227	    -17.87268103	     -6.11464007	     14.38344843	     -5.02260432	      5.28033437	      0.04903440	     -0.02249534	      0.00240000	     11.34399060	     15.38182374	      0.00000000	    -22.29014822	     -4.60332914	    -11.37248445	     -4.08898555	      4.40467827	      0.04914520	     -0.02253164	     -0.00240000	     21.11935536	     -8.89537221	      0.00000000
      0.28822222	      3.48406326	     11.61159493	     79.73321273	     -0.07542845	     -0.08646092	      2.81159882	    -18.12167362	     -5.97475950	     13.91054684	     -5.06368414	      5.31769584	      0.04902946	     -0.02249374	      0.00240000	     11.53331820	     15.86540701	      0.00000000	    -22.56582920	     -4.81798947	    -11.80797072	     -4.10579088	      4.42089951	      0.04914323	     -0.02253099	     -0.00240000	     22.80742255	     -6.85121339	      0.00000000
      0.32525926	      3.48703092	     11.39481717	     79.69217569	     -0.07538513	     -0.08676194	      2.81136809	    -17.88769983	     -5.93871867	     14.21054389	     -5.09970216	      5.35037041	      0.04902513	     -0.02249233	      0.00240000	     11.64450159	     15.58590554	      0.00000000	    -22.41625157	     -4.80714408	    -10.62710621	     -3.99215276	      4.31093190	      0.04915655	     -0.02253540	     -0.00240000	     23.79454634	     -7.28291401	      0.00000000
      0.36229630	      3.43376404	     11.38448652	     79.53168693	     -0.07520491	     -0.08676903	      2.81138496	    -17.82419695	     -6.04677181	     14.18327956	     -5.13125415	      5.37893304	      0.04902134	     -0.02249111	      0.00240000	     11.63346979	     15.59699354	      0.00000000	    -22.50307816	     -4.65939559	    -10.30481294	     -3.83324539	      4.15579786	      0.04917510	     -0.02254156	     -0.00240000	     24.55009564	     -7.17959276	      0.00000000
      0.39933333	      3.52186298	     11.17229241	     79.67245086	     -0.07539442	     -0.08710449	      2.81118203	    -17.64430532	     -5.86417369	     14.36057190	     -5.16513373	      5.40955221	      0.04901726	     -0.02248979	      0.00240000	     11.79077113	     15.35925884	      0.00000000	    -22.31274111	     -4.84278672	     -8.56095205	     -3.82697585	      4.14966914	      0.04917583	     -0.02254180	     -0.00240000	     25.78964706	     -7.43728546	      0.00000000
      0.43637037	      3.58458505	     11.19406917	     79.59051829	     -0.07534734	     -0.08710574	      2.81121657	    -17.64578446	     -5.83494779	     14.26347320	     -5.20418787	      5.44474038	      0.04901255	     -0.02248826	      0.00240000	     11.83813715	     15.53990350	      0.00000000	    -22.45048627	     -4.86172010	     -7.75828182	     -3.64688085	      3.97196174	      0.04919677	     -0.02254879	     -0.00240000	     26.89820256	     -7.24249278	      0.00000000
      0.47340741	      3.57516513	     11.25099904	     79.61178254	     -0.07535759	     -0.08704555	      2.81127959	    -17.70799978	     -5.85317388	     14.06899750	     -5.20153852	      5.44235746	      0.04901287	     -0.02248837	      0.00240000	     11.87094575	     15.65469069	      0.00000000	    -22.57843124	     -4.83998634	     -6.59767058	     -3.49224272	      3.81780277	      0.04921467	     -0.02255478	     -0.00240000	     27.83081922	     -7.33290391	      0.00000000
      0.51044444	      3.68655507	     11.55480194	     79.53158039	     -0.07545303	     -0.08679987	      2.81151335	    -18.03346232	     -5.83695335	     13.82871480	     -5.19381981	      5.43540300	      0.04901380	     -0.02248867	      0.00240000	     11.87435213	     15.85668523	      0.00000000	    -23.08751663	     -4.72712599	     -1.37184155	     -3.11946343	      3.44020847	      0.04925753	     -0.02256921	     -0.00240000	     27.78388166	    -12.72743453	      0.00000000
      0.54748148	      3.59386859	     11.53645226	     79.36623771	     -0.07520214	     -0.08670779	      2.81152648	    -17.95519276	     -5.97750816	     13.82322133	     -5.22824763	      5.46638075	      0.04900964	     -0.02248733	      0.00240000	     11.85227027	     15.83561104	      0.00000000	    -23.17519549	     -4.54802778	     -1.02341753	     -2.88681373	      3.20019377	      0.04928407	     -0.02257820	     -0.00240000	     28.41291704	    -12.70935605	      0.00000000
      0.58451852	      3.58894958	     11.50962913	     79.29599749	     -0.07499213	     -0.08663665	      2.81151480	    -17.87812460	     -5.98709841	     13.92513993	     -5.32074473	      5.54926873	      0.04899847	     -0.02248372	      0.00240000	     12.03134702	     15.89903901	      0.00000000	    -23.30848901	     -4.54582447	      0.35715120	     -2.58506440	      2.88383770	      0.04931825	     -0.02258985	     -0.00240000	     28.91839839	    -12.92167102	      0.00000000
      0.62155556	      3.56710692	     11.66738350	     79.39574690	     -0.07512671	     -0.08648507	      2.81161301	    -18.08931725	     -6.00738570	     13.95332892	     -5.26693016	      5.50110996	      0.04900497	     -0.02248582	      0.00240000	     11.99826852	     15.63712886	      0.00000000	    -23.52896450	     -4.47220608	      4.55870836	     -2.41192024	      2.69973525	      0.04933774	     -0.02259653	     -0.00240000	     28.99127103	    -16.82442358	      0.00000000
      0.65859259	      3.48083790	     11.77592759	     79.33347031	     -0.07492978	     -0.08624725	      2.81175757	    -18.14738267	     -6.13185803	     13.85359033	     -5.32132778	      5.54981940	      0.04899840	     -0.02248370	      0.00240000	     12.09123653	     15.78493219	      0.00000000	    -23.72774709	     -4.34610698	      5.64897840	     -2.19401387	      2.46535849	      0.04936214	     -0.02260493	     -0.00240000	     29.20262385	    -17.33391172	      0.00000000
      0.69562963	      3.40816360	     11.77929339	     79.26135750	     -0.07475743	     -0.08601791	      2.81184519	    -18.11524055	     -6.22259216	     13.83039796	     -5.33184397	      5.55918198	      0.04899713	     -0.02248329	      0.00240000	     12.03930406	     15.76398280	      0.00000000	    -23.76291851	     -4.23054019	      5.77496827	     -2.07433214	      2.33533291	      0.04937549	     -0.02260955	     -0.00240000	     29.37975940	    -17.34542922	      0.00000000
      0.73266667	      3.25880854	     11.86981692	     79.35148006	     -0.07465750	     -0.08583277	      2.81186096	    -18.20732995	     -6.36519787	     13.44080703	     -5.33188486	      5.55922028	      0.04899712	     -0.02248329	      0.00240000	     12.10747281	     15.95354516	      0.00000000	    -23.95353626	     -4.13738294	      7.67387960	     -1.79003579	      2.02278977	      0.04940701	     -0.02262049	     -0.00240000	     29.43807256	    -18.16757142	      0.00000000
      0.76970370	      3.07304133	     12.27266971	     79.31924654	     -0.07435720	     -0.08511854	      2.81231583	    -18.58596744	     -6.62170324	     13.41529984	     -5.31920251	      5.54790015	      0.04899866	     -0.02248378	      0.00240000	     12.16882368	     15.75956794	      0.00000000	    -24.48160540	     -3.90323594	      9.22529580	     -1.43865386	      1.62928083	      0.04944565	     -0.02263400	     -0.00240000	     29.56308325	    -18.55082619	      0.00000000
